<svg width="32" height="32" viewBox="0 0 32 32" fill="none" xmlns="http://www.w3.org/2000/svg">
<g clip-path="url(#clip0_77_2538)">
<path d="M31.3359 15.5312C31.3359 6.95362 24.3823 0 15.8047 0C7.22706 0 0.273438 6.95362 0.273438 15.5312C0.273438 23.2833 5.95302 29.7087 13.3779 30.8738V20.0207H9.43444V15.5312H13.3779V12.1095C13.3779 8.21699 15.6967 6.06689 19.2444 6.06689C20.9436 6.06689 22.7209 6.37023 22.7209 6.37023V10.1924H20.7625C18.8331 10.1924 18.2314 11.3896 18.2314 12.6179V15.5312H22.5389L21.8503 20.0207H18.2314V30.8738C25.6563 29.7087 31.3359 23.2834 31.3359 15.5312Z" fill="#1877F2"/>
<path d="M21.8505 20.0203L22.539 15.5308H18.2316V12.6174C18.2316 11.389 18.8333 10.1919 20.7627 10.1919H22.7211V6.36975C22.7211 6.36975 20.9437 6.06641 19.2444 6.06641C15.6968 6.06641 13.378 8.21651 13.378 12.109V15.5308H9.43457V20.0203H13.378V30.8733C14.1808 30.9991 14.9922 31.0622 15.8048 31.062C16.6174 31.0622 17.4288 30.9991 18.2316 30.8733V20.0203H21.8505Z" fill="#F9F9F9"/>
</g>
<defs>
<clipPath id="clip0_77_2538">
<rect width="31.0625" height="31.0625" fill="white" transform="translate(0.273438)"/>
</clipPath>
</defs>
</svg>
