<svg width="32" height="32" viewBox="0 0 32 32" fill="none" xmlns="http://www.w3.org/2000/svg">
<g clip-path="url(#clip0_77_2541)">
<path d="M11.2902 1.02005C8.18663 2.09673 5.51007 4.14029 3.65371 6.85058C1.79736 9.56087 0.859062 12.795 0.976641 16.078C1.09422 19.361 2.26148 22.5197 4.30696 25.0902C6.35245 27.6608 9.16834 29.5076 12.341 30.3595C14.9132 31.0232 17.6081 31.0524 20.194 30.4445C22.5366 29.9183 24.7024 28.7927 26.4793 27.178C28.3287 25.4462 29.6711 23.243 30.3621 20.8054C31.1133 18.1546 31.2469 15.3669 30.7528 12.6563H16.3088V18.648H24.6738C24.5066 19.6036 24.1484 20.5157 23.6205 21.3296C23.0926 22.1436 22.4059 22.8427 21.6015 23.385C20.5801 24.0607 19.4286 24.5153 18.2211 24.7197C17.01 24.9449 15.7677 24.9449 14.5567 24.7197C13.3292 24.466 12.168 23.9593 11.1471 23.2321C9.50694 22.0712 8.27543 20.4218 7.62827 18.5194C6.97017 16.5814 6.97017 14.4803 7.62827 12.5423C8.08894 11.1838 8.85047 9.94696 9.85604 8.92399C11.0068 7.73184 12.4637 6.87969 14.0668 6.46102C15.67 6.04236 17.3575 6.07336 18.9442 6.55063C20.1837 6.93112 21.3172 7.59592 22.2543 8.49203C23.1975 7.55369 24.1391 6.61291 25.0791 5.66971C25.5644 5.16252 26.0935 4.6796 26.5715 4.16027C25.1411 2.82914 23.4621 1.79335 21.6307 1.11227C18.2956 -0.0987076 14.6464 -0.131251 11.2902 1.02005Z" fill="#F9F9F9"/>
<path d="M11.2898 1.02123C14.6457 -0.130855 18.2948 -0.0991674 21.6302 1.11102C23.4619 1.79673 25.1402 2.83751 26.5686 4.17359C26.0833 4.69291 25.5712 5.17826 25.0762 5.68303C24.1346 6.62299 23.1938 7.55972 22.2539 8.49321C21.3168 7.5971 20.1833 6.9323 18.9438 6.55181C17.3576 6.07286 15.6701 6.04007 14.0665 6.45702C12.4629 6.87398 11.0052 7.72456 9.85315 8.91547C8.84759 9.93843 8.08605 11.1753 7.62539 12.5338L2.59473 8.63881C4.3954 5.06799 7.51315 2.33659 11.2898 1.02123Z" fill="#E33629"/>
<path d="M1.26087 12.4992C1.53126 11.1591 1.98017 9.86135 2.59559 8.64062L7.62625 12.5453C6.96815 14.4833 6.96815 16.5844 7.62625 18.5224C5.95017 19.8166 4.27328 21.1174 2.59559 22.4246C1.05496 19.3579 0.5851 15.8639 1.26087 12.4992Z" fill="#F8BD00"/>
<path d="M16.3087 12.6562H30.7527C31.2468 15.3668 31.1132 18.1545 30.362 20.8053C29.671 23.2429 28.3286 25.4461 26.4792 27.178C24.8557 25.9112 23.2249 24.6541 21.6015 23.3874C22.4063 22.8444 23.0933 22.1446 23.6213 21.3298C24.1492 20.515 24.5072 19.602 24.6737 18.6455H16.3087C16.3063 16.6507 16.3087 14.6535 16.3087 12.6562Z" fill="#587DBD"/>
<path d="M2.59277 22.4218C4.27047 21.1275 5.94736 19.8267 7.62344 18.5195C8.27188 20.4226 9.50516 22.072 11.1471 23.2323C12.1712 23.9561 13.3349 24.4586 14.564 24.7078C15.775 24.9329 17.0173 24.9329 18.2284 24.7078C19.4359 24.5034 20.5874 24.0487 21.6088 23.373C23.2323 24.6398 24.8631 25.8969 26.4866 27.1636C24.71 28.7792 22.5441 29.9056 20.2013 30.4325C17.6154 31.0404 14.9205 31.0112 12.3483 30.3475C10.314 29.8044 8.41377 28.8468 6.76679 27.5349C5.02356 26.1509 3.59977 24.4068 2.59277 22.4218Z" fill="#319F43"/>
</g>
<defs>
<clipPath id="clip0_77_2541">
<rect width="31.0625" height="31.0625" fill="white" transform="translate(0.46875)"/>
</clipPath>
</defs>
</svg>
