<svg width="69" height="65" viewBox="0 0 69 65" fill="none" xmlns="http://www.w3.org/2000/svg">
<path d="M63.5879 48.9657C63.8507 49.5913 63.9195 50.2544 63.7443 50.8111C63.4189 51.8308 62.3614 52.1623 61.3038 51.5743L53.4192 47.2017C49.602 45.0873 45.8286 42.7664 42.1115 40.2579L38.8075 38.0247C38.0378 37.5055 37.4245 36.7235 37.0553 35.8665C36.8113 35.2972 36.8864 34.3089 36.6924 34.1149C36.7237 32.2445 38.1942 31.2436 39.9088 31.9255L40.5221 32.1694C43.1378 33.2079 45.7285 34.5904 48.2315 36.2794C49.2891 36.9925 50.3279 37.762 51.3479 38.5814L62.5679 47.6083C63.0184 47.9711 63.3626 48.4465 63.5816 48.9595L63.5879 48.9657Z" fill="#ACA7B8"/>
<path d="M54.6149 35.3362C53.5385 34.4667 52.4372 33.6534 51.3171 32.8965C48.6638 31.1074 45.923 29.6436 43.1508 28.5426L42.5375 28.2986C41.1734 27.7544 39.9093 27.8607 38.9644 28.4675L36.9307 29.7624C37.8756 29.1619 39.1396 29.0556 40.5038 29.5935L41.1171 29.8375C43.8892 30.9385 46.6363 32.4023 49.2833 34.1914C50.4034 34.9483 51.5048 35.7616 52.5811 36.6311L63.8011 45.6579L65.8349 44.363L54.6149 35.3362Z" fill="#DBD3E2"/>
<path d="M67.7619 46.9343C67.3489 45.9585 66.6856 45.0451 65.8345 44.3633L63.8008 45.6582C64.6518 46.3463 65.3151 47.2596 65.7281 48.2292C66.2288 49.4053 66.3602 50.6752 66.0222 51.7386C65.797 52.4455 65.384 52.9835 64.8521 53.3213L66.8858 52.0264C67.4177 51.6886 67.8245 51.1569 68.056 50.45C68.3939 49.3865 68.2625 48.1229 67.7619 46.9406V46.9343Z" fill="url(#paint0_linear_77_2812)"/>
<path d="M65.7282 48.2297C65.3152 47.2538 64.6519 46.3405 63.8008 45.6586L52.5808 36.6318C51.5045 35.7623 50.4031 34.949 49.283 34.1921C46.6297 32.403 43.8889 30.9392 41.1167 29.8382L40.5035 29.5942C37.7 28.4807 35.3221 30.1009 35.2658 33.1537C35.247 34.0983 35.4598 35.0804 35.854 36.0062C36.4485 37.4012 37.4497 38.6774 38.7013 39.5219L42.0053 41.7551C45.785 44.3074 49.6209 46.6658 53.5069 48.8177L61.3916 53.1904C63.4066 54.3039 65.409 53.6783 66.0285 51.7391C66.3665 50.6756 66.2351 49.412 65.7344 48.2297H65.7282ZM63.7445 50.8132C63.4191 51.8329 62.3615 52.1644 61.304 51.5764L53.4193 47.21C49.6021 45.0956 45.8288 42.7748 42.1117 40.2663L38.8076 38.033C38.0379 37.5138 37.4247 36.7319 37.0555 35.8749C36.8114 35.3056 36.8865 34.3172 36.6925 34.1233C36.7238 32.2529 38.1944 31.252 39.909 31.9338L40.5222 32.1778C43.138 33.2162 45.7286 34.5987 48.2317 36.2877C49.2893 37.0009 50.328 37.7703 51.348 38.5898L62.5681 47.6166C63.0186 47.9795 63.3628 48.4549 63.5818 48.9678C63.8446 49.5934 63.9135 50.2565 63.7382 50.8132H63.7445Z" fill="url(#paint1_linear_77_2812)"/>
<path d="M45.5155 38.6797C45.5155 40.8066 43.7133 64.7343 27.7687 64.7343C11.8241 64.7343 9.81543 39.5492 9.81543 38.6859C10.5476 38.6859 45.5092 38.6797 45.5092 38.6797H45.5155Z" fill="url(#paint2_linear_77_2812)"/>
<path d="M32.6621 34.4422C29.8336 36.0311 25.3156 35.9811 22.5684 34.3421C19.8213 32.7031 19.8839 30.082 22.7124 28.4931C25.5408 26.9042 30.0589 26.9542 32.806 28.5932C35.5531 30.2384 35.4905 32.8533 32.6621 34.4422Z" fill="#C0BACA"/>
<path d="M45.3465 37.2709C45.2401 36.858 45.0837 36.3075 44.9398 35.9009C44.7896 35.4693 44.5518 34.9125 44.3578 34.4996C44.0136 33.774 43.4504 32.8482 42.9498 32.1913C42.6682 31.8222 42.0049 30.9527 40.9161 29.9831C39.8272 29.0197 38.9199 28.463 38.3755 28.1252C38.025 27.9125 37.5494 27.656 37.1865 27.4746C36.8986 27.3307 36.5107 27.1556 36.2166 27.0242C35.4093 26.6739 34.746 26.4549 34.0952 26.2547C34.0076 26.2297 33.2003 25.9732 32.0051 25.7355C31.2167 25.5791 30.3969 25.4728 29.9276 25.429C29.621 25.3977 29.208 25.3602 28.8951 25.3477C28.5822 25.3352 28.1692 25.3164 27.8626 25.3164C27.5497 25.3164 27.1367 25.3227 26.83 25.3289C26.1792 25.3352 25.3845 25.4228 24.7525 25.4916C24.74 25.4916 23.7262 25.6104 22.6499 25.8606C22.3057 25.9357 21.8552 26.0546 21.5173 26.1484C21.2106 26.236 20.8101 26.3673 20.5098 26.4612C20.1343 26.58 19.6462 26.774 19.2833 26.9241C18.9829 27.0492 18.6012 27.2306 18.3071 27.362C17.9128 27.5434 17.406 27.8124 17.043 28.0376C16.5049 28.3629 15.7977 28.8258 15.2971 29.2136C14.8028 29.5952 14.1707 30.1395 13.7327 30.5836C13.3635 30.959 12.8879 31.4657 12.575 31.891C12.3936 32.135 12.1495 32.4478 11.9868 32.698C11.7365 33.0796 11.4236 33.6051 11.1983 34.0054C10.9856 34.3808 10.7478 34.9 10.5914 35.3004C10.3849 35.8508 10.1533 36.5953 9.99062 37.1645C9.24596 40.2173 10.8604 43.4389 14.8653 45.8348C21.7363 49.9385 33.0377 50.0573 40.1026 46.0913C44.339 43.7141 46.0912 40.4174 45.3403 37.2646L45.3465 37.2709ZM32.6622 34.4496C29.8337 36.0385 25.3157 35.9885 22.5686 34.3495C19.8214 32.7043 19.884 30.0894 22.7125 28.5005C25.541 26.9116 30.059 26.9616 32.8061 28.6006C35.5532 30.2458 35.4907 32.8607 32.6622 34.4496Z" fill="url(#paint3_linear_77_2812)"/>
<g style="mix-blend-mode:multiply">
<path d="M31.7984 64.1696C30.5656 64.5324 29.2265 64.7326 27.7685 64.7326C15.6974 64.7326 11.6111 50.2884 10.3408 42.9005C12.7 41.1114 10.2407 41.8183 11.6299 41.0113C12.2119 40.6735 14.0704 41.493 14.0704 41.493C15.4721 41.2553 16.2856 42.9631 16.417 44.3268C16.83 48.6056 18.4946 54.2982 20.8725 58.5771C23.1753 62.712 26.7923 64.4761 31.7984 64.1696Z" fill="#EBEBEB"/>
</g>
<path d="M40.5504 32.1765C40.5727 28.048 34.7915 24.6698 27.6376 24.6311C20.4838 24.5924 14.6663 27.9079 14.644 32.0364C14.6216 36.1649 20.4029 39.5431 27.5567 39.5818C34.7106 39.6205 40.528 36.305 40.5504 32.1765Z" fill="#BCB7C7"/>
<path d="M16.1617 33.4429C16.5685 33.6869 17.1191 33.9996 17.5447 34.1998C18.2539 34.5334 18.9777 34.84 19.7161 35.1194C20.0477 35.2445 20.4983 35.3946 20.8425 35.4885C21.462 35.6574 22.3005 35.8638 22.9325 36.0014C23.2642 36.0765 23.7147 36.1516 24.0527 36.1953C24.3781 36.2329 24.8098 36.2954 25.1415 36.3267C25.4669 36.358 25.9049 36.3955 26.2366 36.408C26.562 36.4268 27 36.4393 27.3317 36.4456C27.6633 36.4456 28.1014 36.4393 28.433 36.4331C28.7709 36.4331 29.2215 36.4018 29.5594 36.3705C30.2102 36.3079 31.08 36.1953 31.7308 36.0953C32.0813 36.039 32.5506 35.9451 32.8948 35.8638C33.2139 35.7887 33.6332 35.6886 33.946 35.6011C34.3215 35.4947 34.8221 35.3383 35.1913 35.2132C35.6294 35.0693 36.2051 34.8441 36.6306 34.6627C37.2 34.4188 37.9447 34.0497 38.4891 33.7557C38.9522 33.4992 39.5467 33.1176 39.991 32.8236C40.2976 32.6234 40.6856 32.3294 40.9734 32.0979C41.3864 31.7601 41.9121 31.2847 42.3001 30.9219C41.5241 31.6913 40.5542 32.4107 39.3965 33.055C32.6194 36.8334 21.8625 36.7208 15.3607 32.8111C14.4283 32.2481 13.6336 31.6413 12.9766 30.9969C13.2957 31.2972 13.7337 31.6851 14.0654 31.9728C14.2218 32.1104 14.4409 32.2731 14.6098 32.3982C15.0604 32.7423 15.6924 33.1614 16.1805 33.4554L16.1617 33.4429Z" fill="url(#paint4_linear_77_2812)"/>
<path d="M29.5529 36.3582C38.5201 36.3582 47.8566 27.4565 47.8566 21.3823C47.8566 19.1991 47.7127 15.6834 46.6363 12.0739C44.7215 5.64316 9.0089 8.82726 8.29552 13.4001C8.12031 14.5074 8.08277 15.3081 8.03897 15.5708C7.80743 16.9283 6.34939 24.6039 11.8812 29.9149C17.413 35.2259 22.757 36.3519 29.5529 36.3519V36.3582Z" fill="url(#paint5_linear_77_2812)"/>
<path d="M46.8989 13.0179C46.78 12.5675 46.6173 11.967 46.4609 11.5228C46.2919 11.0537 46.0353 10.4469 45.8226 9.99645C45.4471 9.20825 44.8339 8.19485 44.2895 7.48171C43.9828 7.07509 43.2569 6.13049 42.0742 5.07955C40.8915 4.02861 39.9028 3.42181 39.3083 3.05899C38.9329 2.82753 38.4072 2.55229 38.013 2.34585C37.7001 2.18946 37.2809 1.99554 36.9617 1.85792C36.0856 1.47007 35.3598 1.23861 34.6526 1.01967C34.5588 0.988388 33.6827 0.713141 32.3748 0.456661C31.5175 0.28776 30.6227 0.17516 30.1158 0.125115C29.7779 0.0938369 29.3273 0.0500481 28.9894 0.0375369C28.6515 0.0250257 28.201 0.0062556 27.863 0C27.5251 0 27.0746 0.00625828 26.7367 0.0125139C26.0295 0.0187695 25.166 0.11886 24.4714 0.193927C24.4589 0.193927 23.3575 0.325294 22.1811 0.594285C21.8056 0.681864 21.3113 0.806976 20.9483 0.907065C20.6167 1.0009 20.1786 1.14478 19.847 1.25112C19.4402 1.38249 18.9083 1.59518 18.5078 1.75783C18.1824 1.8892 17.7632 2.08937 17.444 2.23951C17.0185 2.43343 16.4678 2.7337 16.0673 2.97767C15.4791 3.33424 14.7094 3.83469 14.165 4.25381C13.6268 4.66668 12.9385 5.26096 12.4629 5.7489C12.0624 6.15552 11.543 6.71227 11.2051 7.16893C11.0111 7.43166 10.742 7.77572 10.5606 8.04471C10.2915 8.46383 9.94731 9.0331 9.70326 9.46473C9.47172 9.87135 9.21516 10.4406 9.04621 10.8785C8.82093 11.4728 8.56436 12.2923 8.38915 12.9053C7.57565 16.2333 9.33406 19.7427 13.6957 22.345C21.1798 26.8178 33.4824 26.9429 41.1857 22.6203C45.7976 20.0304 47.7124 16.4397 46.8927 13.0117L46.8989 13.0179Z" fill="url(#paint6_linear_77_2812)"/>
<path d="M47.6248 19.519C47.6623 20.7701 47.6123 21.4833 47.4183 22.2527C46.7049 24.6236 44.8088 26.7943 41.5861 28.5959C36.1107 31.6486 28.4513 32.5619 21.6742 31.3796C19.5591 30.9042 18.7706 30.729 17.7381 21.7022C17.6004 19.1624 18.4703 18.981 19.2462 19.1061C25.8168 21.1204 34.1583 20.5762 39.8277 17.4171C43.5198 15.359 45.347 12.594 45.2719 9.84783C45.2719 9.79153 45.2782 9.71646 45.2844 9.66016C45.4096 9.72897 45.4909 9.77276 45.5785 9.89787C45.5785 9.89787 47.3182 13.2008 47.6248 19.5252V19.519Z" fill="#2D2F40"/>
<path d="M30.4855 23.1476C28.9148 23.2289 27.6445 24.9179 27.6445 26.9322C27.6445 27.2825 27.6821 27.6203 27.7572 27.9331C28.5707 27.6266 29.4968 27.4264 30.4855 27.3763C31.468 27.3263 32.4004 27.4326 33.2139 27.6578C33.2827 27.3326 33.3265 26.9947 33.3265 26.6444C33.3265 24.6364 32.0562 23.0662 30.4855 23.1476Z" fill="#00BBFF"/>
<path d="M41.6238 19.2732C40.585 20.099 40.0469 22.2447 40.4223 24.0713C40.4849 24.3903 40.5788 24.6718 40.6851 24.9221C41.1732 24.2527 41.7615 23.6209 42.4185 23.1017C43.0756 22.5825 43.7201 22.2321 44.3083 22.0445C44.2958 21.7192 44.2583 21.3876 44.1957 21.0749C43.8202 19.2545 42.6688 18.4475 41.6238 19.2732Z" fill="#00BBFF"/>
<path d="M4.48973 23.7549C4.78384 24.149 5.01537 24.5681 5.13427 24.9622L7.37451 32.3688C8.45709 35.9596 9.3582 39.4752 10.0778 42.897L10.7161 45.9372C10.9602 47.1133 10.3657 47.7451 9.25808 47.4949C8.2193 47.2572 6.99905 46.3188 6.14801 45.1866C5.82887 44.7612 5.55979 44.3108 5.3658 43.8541L5.12175 43.2661C4.07046 40.7388 3.29451 38.2929 2.80641 35.9908C2.59991 35.015 2.44971 34.0641 2.34959 33.1508L1.27327 23.0417C1.1794 22.1534 1.8615 21.8469 2.85647 22.3411C3.45095 22.6351 4.04543 23.1668 4.48973 23.7549Z" fill="url(#paint7_linear_77_2812)"/>
<path d="M15.2405 44.2736L14.6023 41.2334C13.8701 37.749 12.9565 34.1771 11.8489 30.5301L9.60863 23.1172L7.34961 25.1878L9.58986 32.6007C10.6912 36.254 11.6111 39.8259 12.337 43.304L12.9753 46.3442C13.188 47.3577 13.0191 48.1271 12.5435 48.5587L14.8025 46.4881C15.2781 46.0502 15.4471 45.2871 15.2343 44.2736H15.2405Z" fill="#BFBAC9"/>
<path d="M8.38261 20.8136C7.53783 19.6938 6.41145 18.6929 5.27881 18.1299C4.12114 17.5544 3.18874 17.5482 2.68186 18.0111L0.422852 20.0817C0.935981 19.6125 1.86837 19.625 3.01978 20.2006C4.15243 20.7636 5.2788 21.7644 6.12359 22.8842C6.68678 23.6286 7.12482 24.4293 7.3501 25.1863L9.60912 23.1157C9.37759 22.3587 8.9458 21.558 8.38261 20.8136Z" fill="url(#paint8_linear_77_2812)"/>
<path d="M12.9818 46.3409L12.3435 43.3007C11.6113 39.8163 10.6977 36.2443 9.59635 32.5973L7.3561 25.1844C7.12457 24.4275 6.6928 23.6268 6.1296 22.8824C5.28482 21.7626 4.15843 20.7617 3.02579 20.1987C1.13597 19.2604 -0.159367 19.8359 0.0158479 21.5312L1.09217 31.6402C1.19855 32.6098 1.35499 33.617 1.57401 34.6492C2.08714 37.0888 2.9069 39.6787 4.02077 42.3561L4.26482 42.9441C4.57144 43.6823 5.00948 44.4204 5.53513 45.1148C6.92433 46.9602 8.90801 48.4866 10.5976 48.8744C12.4061 49.2873 13.3697 48.2551 12.9692 46.3409H12.9818ZM9.25844 47.5044C8.21967 47.2667 6.99942 46.3284 6.14838 45.1961C5.82923 44.7707 5.56015 44.3203 5.36617 43.8637L5.12212 43.2756C4.07083 40.7484 3.29488 38.3024 2.80678 36.0004C2.60027 35.0245 2.45008 34.0736 2.34996 33.1603L1.27364 23.0513C1.17977 22.163 1.86187 21.8564 2.85684 22.3506C3.45132 22.6447 4.0458 23.1764 4.49009 23.7644C4.78421 24.1585 5.01574 24.5776 5.13464 24.9717L7.37488 32.3846C8.45745 35.9753 9.35857 39.491 10.0782 42.9128L10.7165 45.953C10.9605 47.1291 10.3661 47.7609 9.25844 47.5107V47.5044Z" fill="url(#paint9_linear_77_2812)"/>
<defs>
<linearGradient id="paint0_linear_77_2812" x1="67.3489" y1="51.8825" x2="63.715" y2="45.5883" gradientUnits="userSpaceOnUse">
<stop offset="0.14" stop-color="#A8A4B5"/>
<stop offset="0.57" stop-color="#DBD3E2"/>
</linearGradient>
<linearGradient id="paint1_linear_77_2812" x1="48.3506" y1="45.8713" x2="53.692" y2="36.6115" gradientUnits="userSpaceOnUse">
<stop offset="0.09" stop-color="#A8A4B5"/>
<stop offset="0.36" stop-color="#ABA7B8"/>
<stop offset="0.6" stop-color="#B6B1C1"/>
<stop offset="0.83" stop-color="#C9C2D2"/>
<stop offset="1" stop-color="#DBD3E2"/>
</linearGradient>
<linearGradient id="paint2_linear_77_2812" x1="9.82169" y1="51.7101" x2="45.5155" y2="51.7101" gradientUnits="userSpaceOnUse">
<stop offset="0.37" stop-color="#A8A4B5"/>
<stop offset="0.97" stop-color="#DBD3E2"/>
</linearGradient>
<linearGradient id="paint3_linear_77_2812" x1="21.2419" y1="49.5193" x2="34.7893" y2="26.0507" gradientUnits="userSpaceOnUse">
<stop stop-color="#A8A4B5"/>
<stop offset="0.56" stop-color="#DBD3E2"/>
</linearGradient>
<linearGradient id="paint4_linear_77_2812" x1="24.9225" y1="33.6681" x2="52.5188" y2="33.6681" gradientUnits="userSpaceOnUse">
<stop offset="0.24" stop-color="#A8A4B5"/>
<stop offset="1" stop-color="#DBD3E2"/>
</linearGradient>
<linearGradient id="paint5_linear_77_2812" x1="10.8987" y1="56.9391" x2="39.4429" y2="-7.6007" gradientUnits="userSpaceOnUse">
<stop offset="0.37" stop-color="#A8A4B5"/>
<stop offset="0.97" stop-color="#DBD3E2"/>
</linearGradient>
<linearGradient id="paint6_linear_77_2812" x1="20.6417" y1="26.3611" x2="35.3962" y2="0.802734" gradientUnits="userSpaceOnUse">
<stop stop-color="#A8A4B5"/>
<stop offset="0.56" stop-color="#DBD3E2"/>
</linearGradient>
<linearGradient id="paint7_linear_77_2812" x1="4.67119" y1="38.5619" x2="12.4136" y2="16.3279" gradientUnits="userSpaceOnUse">
<stop stop-color="#A8A4B5"/>
<stop offset="1" stop-color="#D1CAD9"/>
</linearGradient>
<linearGradient id="paint8_linear_77_2812" x1="7.22495" y1="25.2551" x2="2.94056" y2="17.8347" gradientUnits="userSpaceOnUse">
<stop offset="0.14" stop-color="#BFBAC9"/>
<stop offset="0.25" stop-color="#C7C1D0"/>
<stop offset="0.49" stop-color="#D5CEDD"/>
<stop offset="0.69" stop-color="#DBD3E2"/>
</linearGradient>
<linearGradient id="paint9_linear_77_2812" x1="4.98444" y1="38.6653" x2="12.7269" y2="16.4375" gradientUnits="userSpaceOnUse">
<stop stop-color="#A8A4B5"/>
<stop offset="1" stop-color="#D1CAD9"/>
</linearGradient>
</defs>
</svg>
