<svg width="312" height="376" viewBox="0 0 312 376" fill="none" xmlns="http://www.w3.org/2000/svg">
<path d="M27.2596 230.673C29.7021 220.79 33.3798 211.118 35.322 201.16C41.2434 170.801 30.8679 138.892 41.3276 109.371C44.2885 101.014 48.8583 93.0914 54.0691 85.5133C69.6404 62.8681 92.3864 10.0324 122.202 1.28394C152.018 -7.46473 189.402 30.6023 207.937 51.6879C220.232 65.6747 226.076 74.471 232.456 90.9078C239.514 109.088 248.688 129.222 265.543 142.031C289.613 160.324 322.02 212.488 308.567 261.786C286.867 341.301 245.571 362.545 232.456 368.561C228.51 370.372 191.911 369.792 187.428 370.262C145.736 374.633 158.607 364.471 116.915 368.843C104.148 370.181 88.038 372.437 77.3742 365.229C66.9038 358.151 58.1723 347.231 51.1491 337.826C35.842 317.328 26.5742 293.786 24.3742 269.806C23.1753 256.734 24.0833 243.524 27.2596 230.673Z" fill="#D4EBFF"/>
<path d="M135.858 74.125C136.603 70.8819 139.506 68.4627 142.975 68.4627C143.612 68.4627 144.229 68.5445 144.818 68.6979C146.53 65.0365 150.246 62.4993 154.555 62.4993C155.669 62.4993 156.743 62.6688 157.754 62.9835C160.074 59.1426 164.288 56.5742 169.102 56.5742C174.83 56.5742 179.709 60.2096 181.557 65.299C182.866 64.5695 184.372 64.1523 185.977 64.1523C190.998 64.1523 195.068 68.2225 195.068 73.2432C195.068 73.541 195.052 73.8348 195.024 74.1253H135.858V74.125Z" fill="white"/>
<path d="M272.589 169.43C271.844 166.187 268.942 163.767 265.473 163.767C264.836 163.767 264.218 163.849 263.629 164.002C261.917 160.341 258.201 157.804 253.892 157.804C252.779 157.804 251.704 157.973 250.694 158.288C248.374 154.447 244.16 151.879 239.345 151.879C233.617 151.879 228.739 155.514 226.89 160.604C225.582 159.874 224.075 159.457 222.471 159.457C217.45 159.457 213.38 163.527 213.38 168.548C213.38 168.846 213.395 169.14 213.423 169.43L272.589 169.43Z" fill="white"/>
<path d="M44.9492 187.813C45.7827 184.185 49.029 181.479 52.9099 181.479C53.6223 181.479 54.3133 181.57 54.9722 181.742C56.8875 177.646 61.0442 174.808 65.8643 174.808C67.1105 174.808 68.3124 174.998 69.4425 175.35C72.0375 171.053 76.7517 168.18 82.1374 168.18C88.5452 168.18 94.0026 172.246 96.0705 177.94C97.5342 177.124 99.2195 176.657 101.014 176.657C106.631 176.657 111.184 181.21 111.184 186.827C111.184 187.16 111.167 187.488 111.135 187.813L44.9492 187.813Z" fill="white"/>
<path d="M244.223 227.719C244.712 225.587 246.62 223.997 248.9 223.997C249.318 223.997 249.724 224.051 250.111 224.152C251.236 221.746 253.679 220.078 256.511 220.078C257.243 220.078 257.949 220.19 258.613 220.396C260.138 217.872 262.907 216.184 266.072 216.184C269.836 216.184 273.043 218.573 274.258 221.918C275.118 221.439 276.108 221.164 277.163 221.164C280.462 221.164 283.138 223.839 283.138 227.139C283.138 227.335 283.128 227.528 283.109 227.719L244.223 227.719Z" fill="white"/>
<path d="M57.75 87.514C58.2432 85.3669 60.1646 83.765 62.4614 83.765C62.8829 83.765 63.2919 83.8194 63.682 83.9208C64.8154 81.4968 67.2754 79.8171 70.1282 79.8171C70.8659 79.8171 71.5772 79.9294 72.2459 80.1378C73.7816 77.5948 76.5719 75.8945 79.7592 75.8945C83.5515 75.8945 86.7815 78.3014 88.0054 81.6708C88.8717 81.1879 89.8691 80.9116 90.9312 80.9116C94.2553 80.9116 96.9502 83.6063 96.9502 86.9304C96.9502 87.1276 96.9398 87.3222 96.9214 87.5145H57.75V87.514Z" fill="white"/>
<path opacity="0.5" d="M141.645 40.6548C139.902 39.1717 137.446 38.9427 135.161 38.8269C117.159 37.9163 98.4536 39.8881 80.5721 38.5586C75.3757 46.3936 70.6091 54.5507 66.1589 62.2263C66.4017 62.2785 67.0517 62.3735 67.294 62.4313C70.6018 63.2237 73.8507 64.6179 76.2766 67.002C78.7024 69.3862 80.1975 72.8725 79.6276 76.2258C78.2048 84.5983 66.2019 86.9287 63.0333 94.808C61.7315 98.0453 62.1526 101.762 60.9466 105.036C59.2016 109.774 54.4692 112.653 49.9393 114.883C45.6155 117.013 41.1664 118.893 36.6228 120.503C35.1799 127.738 34.6851 135.084 34.623 142.486C34.6765 142.477 34.73 142.468 34.7835 142.459C50.6639 139.783 66.5443 137.106 82.4245 134.43C88.3891 133.424 95.3408 131.658 97.5563 126.03C99.2398 121.753 97.4216 116.758 98.8531 112.391C100.202 108.275 104.124 105.595 107.988 103.64C111.853 101.684 116.05 100.039 118.947 96.8191C121.844 93.5992 122.857 88.128 119.772 85.0881C118.046 83.3878 115.526 82.8585 113.295 81.9137C108.538 79.8994 104.576 74.5855 106.32 69.7226C108.126 64.6882 114.421 63.2716 119.703 62.4326C128.362 61.0575 137.982 58.4806 142.279 50.838C144.087 47.6213 144.456 43.0455 141.645 40.6548Z" fill="white"/>
<path opacity="0.5" d="M293.721 200.339C289.225 199.469 284.939 197.752 280.746 195.91C275.993 193.823 271.137 191.421 267.968 187.311C265.058 183.536 263.883 178.69 263.504 173.94C263.392 172.544 263.322 171.074 262.578 169.887C261.959 168.898 260.944 168.23 259.921 167.669C246.436 160.275 228.668 166.894 214.867 160.108C212.136 158.764 209.363 156.326 209.675 153.298C210.06 149.56 214.571 148.006 218.262 147.295C225.015 145.994 231.769 144.693 238.522 143.393C241.562 142.807 245.052 141.878 246.292 139.042C247.036 137.341 246.741 135.364 247.232 133.574C247.743 131.709 249.004 130.308 250.629 129.306C244.609 121.606 239.923 112.897 235.996 104.141C235.216 104.245 234.42 104.317 233.602 104.345C228.595 104.515 223.381 104.609 218.918 106.886C214.454 109.163 211.036 114.384 212.58 119.151C212.985 120.399 213.696 121.538 214.017 122.811C214.923 126.399 212.456 130.087 209.347 132.095C206.238 134.103 202.538 134.935 199.117 136.348C195.697 137.762 192.292 140.073 191.207 143.612C190.212 146.857 191.308 150.703 189.432 153.532C187.965 155.746 185.177 156.564 182.816 157.782C177.989 160.273 174.297 166.262 176.687 171.139C178.763 175.375 184.096 176.632 188.753 177.384C206.985 180.327 225.276 182.911 243.611 185.134C245.219 185.329 246.975 185.595 248.061 186.798C248.706 187.513 249.014 188.461 249.305 189.379C251.466 196.194 253.649 203.405 252.078 210.379C250.958 215.353 247.969 219.922 247.884 225.019C247.865 226.173 248.017 227.38 248.664 228.336C249.409 229.436 250.685 230.032 251.903 230.565C269.794 238.386 288.852 243.53 308.249 245.773C308.706 245.826 309.168 245.875 309.632 245.921C310.892 230.528 308.29 215.248 303.456 201.185C300.188 201.139 296.925 200.959 293.721 200.339Z" fill="white"/>
<path d="M203.094 59.9525L194.581 55.9727L193.294 58.7263L201.807 62.7061L203.094 59.9525Z" fill="#FEB546"/>
<path d="M166.036 48.7529L156.996 46.1875L156.166 49.1117L165.206 51.677L166.036 48.7529Z" fill="#FF5B7E"/>
<path d="M159.535 17.8085L152.891 24.4531L155.04 26.6025L161.685 19.9579L159.535 17.8085Z" fill="#FEB546"/>
<path d="M158.422 70.496L151.777 77.1406L153.927 79.2898L160.571 72.6452L158.422 70.496Z" fill="#FEB546"/>
<path d="M79.675 89.4138L73.0303 96.0586L75.1795 98.2078L81.8242 91.563L79.675 89.4138Z" fill="#0047AB"/>
<path d="M82.3655 133.047L73.4346 130.125L72.4893 133.014L81.4202 135.936L82.3655 133.047Z" fill="#FF5B7E"/>
<path d="M82.1504 43.5361L74.4297 38.1797L72.6971 40.6771L80.4178 46.0335L82.1504 43.5361Z" fill="#0047AB"/>
<path d="M84.4333 67.5508H75.0361V70.5902H84.4333V67.5508Z" fill="#FF5B7E"/>
<path d="M53.2727 102.652L44.3623 105.637L45.3276 108.519L54.2381 105.534L53.2727 102.652Z" fill="#07085B"/>
<path d="M56.0995 134.197L47.0801 136.836L47.9336 139.753L56.953 137.114L56.0995 134.197Z" fill="#FEB546"/>
<path d="M115.805 23.4814L109.479 16.5312L107.232 18.5771L113.557 25.5273L115.805 23.4814Z" fill="#FF5B7E"/>
<path d="M125.704 43.2476L118.097 48.7656L119.882 51.2262L127.489 45.7082L125.704 43.2476Z" fill="#0047AB"/>
<path d="M197.012 34.9496L187.805 36.8281L188.412 39.8064L197.62 37.9279L197.012 34.9496Z" fill="#0047AB"/>
<path d="M271.34 143.239L262.133 145.117L262.74 148.095L271.948 146.217L271.34 143.239Z" fill="#0047AB"/>
<path d="M244.966 110.469L235.759 112.348L236.366 115.326L245.574 113.447L244.966 110.469Z" fill="#FF5B7E"/>
<path d="M194.173 105.024L185.66 101.043L184.373 103.797L192.885 107.777L194.173 105.024Z" fill="#FF5B7E"/>
<path d="M222.82 102.794L215.624 108.836L217.578 111.164L224.775 105.121L222.82 102.794Z" fill="#FEB546"/>
<path d="M241.597 199.692L234.4 205.734L236.355 208.062L243.551 202.02L241.597 199.692Z" fill="#FEB546"/>
<path d="M117.017 88.5943L109.82 94.6367L111.775 96.9643L118.971 90.9219L117.017 88.5943Z" fill="#07085B"/>
<path d="M186.212 120.92L189.564 129.699L192.404 128.615L189.051 119.836L186.212 120.92Z" fill="#07085B"/>
<path d="M237.976 136.609L236.942 145.949L239.964 146.284L240.997 136.944L237.976 136.609Z" fill="#FF5B7E"/>
<path d="M254.479 176.719L247.282 182.762L249.237 185.089L256.433 179.047L254.479 176.719Z" fill="#07085B"/>
<path d="M38.1329 172.411L30.9365 178.453L32.891 180.781L40.0874 174.738L38.1329 172.411Z" fill="#FF5B7E"/>
<path d="M94.5661 200.554L95.2051 209.93L98.2378 209.723L97.5988 200.347L94.5661 200.554Z" fill="#FF5B7E"/>
<path d="M275.381 183.167L276.02 192.543L279.052 192.336L278.413 182.961L275.381 183.167Z" fill="#FF5B7E"/>
<path d="M71.3754 177.087L79.9551 173.254L78.7152 170.479L70.1356 174.312L71.3754 177.087Z" fill="#07085B"/>
<path d="M52.9316 201.977L57.9131 209.945L60.4904 208.334L55.509 200.366L52.9316 201.977Z" fill="#FEB546"/>
<path d="M250.499 364.41C249.444 365.433 248.56 367.46 247.623 369.606C246.863 371.347 246.046 373.215 244.957 375.06H217.29C218.041 374.591 218.809 374.148 219.599 373.745C221.386 372.833 223.202 372.125 224.805 371.5C227.169 370.579 229.402 369.708 230.546 368.564C231.588 367.522 232.463 365.516 233.389 363.394C234.745 360.286 236.434 356.417 239.684 353.263C244.072 349.005 249.654 347.583 254.139 346.439C257.276 345.64 260.239 344.884 261.625 343.491C262.372 342.741 263.125 341.338 263.921 339.852C264.424 338.916 264.943 337.948 265.559 336.938C270.648 328.599 279.452 322.749 289.112 321.29C289.66 321.207 290.17 321.143 290.665 321.082C291.459 320.983 298.778 319.49 301.218 321.166C305.805 324.317 305.641 331.203 300.851 334.036C300.301 334.362 299.719 334.663 299.104 334.931C296.7 335.98 294.419 336.265 292.587 336.493C292.173 336.545 291.782 336.594 291.432 336.646C286.336 337.417 281.502 340.628 278.816 345.028C278.426 345.669 278.028 346.409 277.608 347.193C277.476 347.44 277.339 347.695 277.198 347.954L270.362 348.183L275.297 351.156C274.552 352.27 273.684 353.392 272.636 354.445C268.228 358.876 262.544 360.325 257.975 361.489C254.86 362.283 251.918 363.033 250.499 364.41Z" fill="#99B5DD"/>
<path d="M246.621 340.453C245.547 342.035 244.954 344.851 244.326 347.833C243.391 352.274 242.331 357.306 239.18 362.103C235.694 367.409 230.734 370.628 226.749 373.214C225.776 373.845 224.838 374.455 223.971 375.058H198.277C200.922 369.43 204.829 364.399 209.704 360.492C211.742 358.859 213.869 357.479 215.747 356.261C218.517 354.463 221.133 352.765 222.289 351.006C223.342 349.403 223.929 346.617 224.55 343.668C225.459 339.349 226.591 333.974 229.902 329.099C234.372 322.516 241.11 319.232 246.524 316.594C250.312 314.748 253.889 313.004 255.288 310.864C256.042 309.711 256.631 307.725 257.255 305.622C257.648 304.296 258.055 302.925 258.574 301.476C260.96 294.814 265.019 288.833 270.204 284.079L274.832 291.386L272.794 281.882C276.311 279.12 280.246 276.887 284.464 275.329C285.14 275.079 285.775 274.863 286.388 274.654C287.374 274.318 296.308 270.488 299.859 271.981C304.75 274.037 306.915 279.321 305.617 283.916L296.423 284.692L303.399 287.861C303.204 288.072 303.001 288.28 302.783 288.478C302.167 289.039 301.505 289.575 300.792 290.079C298.005 292.05 295.174 293.013 292.899 293.787C292.385 293.962 291.899 294.128 291.468 294.287C285.176 296.611 279.862 301.978 277.6 308.292C277.271 309.212 276.96 310.26 276.63 311.37C276.118 313.098 275.535 315.062 274.704 317.094L264.295 319.096L272.992 320.633C272.745 321.064 272.485 321.494 272.206 321.921C267.756 328.729 260.893 332.074 255.379 334.761C251.618 336.594 248.066 338.325 246.621 340.453Z" fill="#80A3D5"/>
<path opacity="0.2" d="M275.313 294.468C255.512 322.133 262.538 318.506 241.969 333.435C226.317 344.796 231.321 365.637 218.15 375.06H223.972C224.838 374.457 225.777 373.847 226.75 373.216C230.735 370.63 235.694 367.411 239.18 362.106C242.332 357.308 243.392 352.276 244.327 347.835C244.955 344.853 245.548 342.037 246.622 340.455C248.067 338.327 251.619 336.596 255.38 334.764C260.894 332.076 267.757 328.731 272.206 321.923C272.485 321.496 272.746 321.066 272.992 320.635L264.296 319.098L274.705 317.096C275.535 315.065 276.119 313.1 276.631 311.372C276.96 310.262 277.271 309.214 277.601 308.295C279.863 301.98 285.177 296.613 291.469 294.289C291.9 294.13 292.386 293.964 292.9 293.789C295.175 293.015 298.006 292.052 300.793 290.081C301.505 289.577 302.168 289.04 302.784 288.48C303.002 288.282 303.205 288.074 303.4 287.863L296.423 284.694L305.618 283.918C306.5 280.795 305.781 277.354 303.694 274.824C295.475 275.921 285.194 280.663 275.313 294.468Z" fill="#336CBC"/>
<path d="M254.406 281.298C254.605 284.609 254.845 288.636 254.103 292.925C248.755 295.936 238.309 301.821 239.5 301.187C240.616 300.594 248.318 298.807 252.829 297.791C250.142 305.378 244.801 310.902 240.406 315.444C237.009 318.954 233.801 322.27 233.063 325.182C232.515 327.347 232.987 330.674 233.486 334.197C234.23 339.444 235.073 345.39 233.526 351.912C231.815 359.124 227.654 364.635 224.311 369.062C222.949 370.866 221.663 372.569 220.691 374.165C220.513 374.458 220.343 374.757 220.178 375.059H195.051C196.208 370.437 198.043 365.982 200.532 361.894C202.117 359.289 203.902 356.926 205.477 354.84C207.8 351.763 209.995 348.857 210.563 346.465C211.079 344.285 210.613 340.994 210.119 337.51C209.395 332.407 208.495 326.056 210.186 319.385C212.468 310.378 218.554 304.087 223.445 299.033C226.866 295.498 230.097 292.158 230.78 289.251C231.147 287.685 231.002 285.27 230.849 282.713C230.752 281.101 230.652 279.435 230.644 277.638C230.583 263.761 236.458 250.111 246.48 240.557L251.093 242.592L248.816 238.468C249.393 237.984 249.945 237.539 250.48 237.11C251.428 236.349 259.707 228.583 264.2 228.805C272.645 229.225 277.923 238.264 273.986 245.747C273.533 246.608 273.02 247.46 272.438 248.298C270.165 251.572 267.442 253.758 265.253 255.514C264.759 255.912 264.292 256.287 263.882 256.633C257.903 261.693 254.21 269.702 254.244 277.534C254.249 278.674 254.325 279.949 254.406 281.298Z" fill="#336CBC"/>
<path opacity="0.2" d="M244.142 265.134C234.696 295.144 243.456 293.458 232.328 309.651C221.201 325.845 217.681 324.496 220.79 342.714C222.243 351.225 215.851 363.934 208.627 375.061H220.178C220.344 374.759 220.513 374.46 220.692 374.167C221.663 372.571 222.95 370.867 224.311 369.063C227.655 364.636 231.815 359.126 233.526 351.913C235.073 345.392 234.23 339.445 233.486 334.199C232.987 330.676 232.515 327.348 233.064 325.184C233.801 322.272 237.01 318.956 240.406 315.445C244.801 310.903 250.142 305.379 252.829 297.792C248.318 298.809 240.617 300.595 239.501 301.189C238.31 301.823 248.755 295.938 254.104 292.926C254.846 288.638 254.606 284.611 254.407 281.299C254.326 279.95 254.249 278.675 254.244 277.535C254.21 269.702 257.903 261.694 263.882 256.634C264.292 256.287 264.759 255.912 265.253 255.515C267.442 253.759 270.164 251.573 272.438 248.299C273.02 247.461 273.533 246.609 273.985 245.748C276.173 241.59 275.514 236.951 273.049 233.578C262.782 238.477 249.568 247.898 244.142 265.134Z" fill="#336CBC"/>
<path d="M250.499 364.41C249.444 365.433 248.56 367.46 247.623 369.606C246.863 371.347 246.046 373.215 244.957 375.06H217.29C218.041 374.591 218.809 374.148 219.599 373.745C221.386 372.833 223.202 372.125 224.805 371.5C227.169 370.579 229.402 369.708 230.546 368.564C231.588 367.522 232.463 365.516 233.389 363.394C234.745 360.286 236.434 356.417 239.684 353.263C244.072 349.005 249.654 347.583 254.139 346.439C257.276 345.64 260.239 344.884 261.625 343.491C262.372 342.741 263.125 341.338 263.921 339.852C264.424 338.916 264.943 337.948 265.559 336.938C270.648 328.599 279.452 322.749 289.112 321.29C289.66 321.207 290.17 321.143 290.665 321.082C291.459 320.983 298.778 319.49 301.218 321.166C305.805 324.317 305.641 331.203 300.851 334.036C300.301 334.362 299.719 334.663 299.104 334.931C296.7 335.98 294.419 336.265 292.587 336.493C292.173 336.545 291.782 336.594 291.432 336.646C286.336 337.417 281.502 340.628 278.816 345.028C278.426 345.669 278.028 346.409 277.608 347.193C277.476 347.44 277.339 347.695 277.198 347.954L270.362 348.183L275.297 351.156C274.552 352.27 273.684 353.392 272.636 354.445C268.228 358.876 262.544 360.325 257.975 361.489C254.86 362.283 251.918 363.033 250.499 364.41Z" fill="#99B5DD"/>
<path opacity="0.2" d="M276.614 336.469C260.42 350.639 258.428 353.149 249.539 357.31C243.249 360.255 237.627 369.754 234.876 375.058H244.956C246.045 373.213 246.862 371.346 247.622 369.604C248.559 367.458 249.443 365.431 250.498 364.408C251.917 363.031 254.859 362.281 257.974 361.487C262.542 360.323 268.227 358.874 272.635 354.443C273.682 353.39 274.551 352.268 275.296 351.154L270.361 348.182L277.197 347.952C277.338 347.693 277.474 347.438 277.607 347.192C278.027 346.408 278.424 345.667 278.815 345.026C281.5 340.627 286.334 337.415 291.431 336.645C291.781 336.592 292.172 336.543 292.586 336.491C294.418 336.263 296.698 335.978 299.102 334.929C299.717 334.661 300.299 334.36 300.85 334.035C303.464 332.488 304.697 329.734 304.535 327.039C295.505 327.384 284.588 329.492 276.614 336.469Z" fill="#336CBC"/>
<path d="M55.7655 364.41C56.8199 365.433 57.7045 367.46 58.6411 369.606C59.4011 371.347 60.2183 373.215 61.3074 375.06H88.9742C88.2236 374.591 87.4557 374.148 86.6654 373.745C84.8783 372.833 83.0622 372.125 81.4599 371.5C79.0956 370.579 76.8626 369.708 75.7187 368.564C74.6768 367.522 73.8019 365.516 72.8756 363.394C71.5192 360.286 69.8309 356.417 66.5807 353.263C62.192 349.005 56.6104 347.583 52.1255 346.439C48.988 345.64 46.0248 344.884 44.6388 343.491C43.8921 342.741 43.1396 341.338 42.3429 339.852C41.8406 338.916 41.3212 337.948 40.7053 336.938C35.6165 328.599 26.8116 322.749 17.1525 321.29C16.6047 321.207 16.0937 321.143 15.5996 321.082C14.8054 320.983 7.48612 319.49 5.04644 321.166C0.45965 324.317 0.623772 331.203 5.41335 334.036C5.96393 334.362 6.54565 334.663 7.16089 334.931C9.56491 335.98 11.8454 336.265 13.6776 336.493C14.0918 336.545 14.483 336.594 14.832 336.646C19.929 337.417 24.7631 340.628 27.4483 345.028C27.8392 345.669 28.2364 346.409 28.6568 347.193C28.7892 347.44 28.926 347.695 29.0667 347.954L35.9031 348.183L30.9674 351.156C31.713 352.27 32.5816 353.392 33.6286 354.445C38.0362 358.876 43.7214 360.325 48.2897 361.489C51.4043 362.283 54.3465 363.033 55.7655 364.41Z" fill="#99B5DD"/>
<path d="M59.6415 340.453C60.7156 342.035 61.3088 344.851 61.9367 347.833C62.8718 352.274 63.9317 357.306 67.0833 362.103C70.5693 367.409 75.529 370.628 79.5141 373.214C80.4868 373.845 81.4253 374.455 82.2915 375.058H107.986C105.341 369.43 101.433 364.399 96.5586 360.492C94.5215 358.859 92.3937 357.479 90.5164 356.261C87.7466 354.463 85.1301 352.765 83.9739 351.006C82.9211 349.403 82.3345 346.617 81.7134 343.668C80.8041 339.349 79.6722 333.974 76.3612 329.099C71.8909 322.516 65.1529 319.232 59.7389 316.594C55.9516 314.748 52.3743 313.004 50.9756 310.864C50.2218 309.711 49.6325 307.725 49.0087 305.622C48.6154 304.296 48.209 302.925 47.69 301.476C45.3033 294.814 41.2446 288.833 36.0591 284.079L31.4317 291.386L33.4699 281.882C29.9529 279.12 26.0179 276.887 21.7995 275.329C21.1232 275.079 20.4891 274.863 19.8754 274.654C18.8893 274.318 9.95572 270.488 6.40457 271.981C1.51295 274.037 -0.651549 279.321 0.646165 283.916L9.84079 284.692L2.86416 287.861C3.05943 288.072 3.262 288.28 3.48047 288.478C4.09635 289.039 4.75842 289.575 5.47162 290.079C8.25866 292.05 11.0897 293.013 13.3644 293.787C13.8785 293.962 14.3642 294.128 14.7951 294.287C21.0874 296.611 26.4011 301.978 28.6633 308.292C28.9929 309.212 29.3037 310.26 29.6328 311.37C30.1454 313.098 30.7286 315.062 31.5589 317.094L41.9681 319.096L33.2718 320.633C33.5182 321.064 33.7788 321.494 34.0578 321.921C38.5069 328.729 45.3699 332.074 50.8845 334.761C54.6442 336.594 58.196 338.325 59.6415 340.453Z" fill="#80A3D5"/>
<path opacity="0.2" d="M30.95 294.468C50.7509 322.133 43.7242 318.506 64.2934 333.435C79.9461 344.796 74.9417 365.637 88.1122 375.06H82.2904C81.4242 374.457 80.4857 373.847 79.5132 373.216C75.5281 370.63 70.5684 367.411 67.0824 362.106C63.9308 357.308 62.8709 352.276 61.9358 347.835C61.3078 344.853 60.7147 342.037 59.6407 340.455C58.1951 338.327 54.6436 336.596 50.8832 334.764C45.3686 332.076 38.5054 328.731 34.0565 321.923C33.7775 321.496 33.5169 321.066 33.2705 320.635L41.9667 319.098L31.5575 317.096C30.7273 315.065 30.1442 313.1 29.6315 311.372C29.3024 310.262 28.9915 309.214 28.662 308.295C26.3998 301.98 21.086 296.613 14.7938 294.289C14.3629 294.13 13.877 293.964 13.3631 293.789C11.0884 293.015 8.25733 292.052 5.47029 290.081C4.75731 289.577 4.09502 289.04 3.47914 288.48C3.26045 288.282 3.0581 288.074 2.86283 287.863L9.83946 284.694L0.644834 283.918C-0.237208 280.795 0.481999 277.354 2.56852 274.824C10.7877 275.921 21.0684 280.663 30.95 294.468Z" fill="#336CBC"/>
<path d="M51.856 281.298C51.6569 284.609 51.4169 288.636 52.1589 292.925C57.5076 295.936 67.9529 301.821 66.762 301.187C65.646 300.594 57.9444 298.807 53.4332 297.791C56.1201 305.378 61.4614 310.902 65.8563 315.444C69.253 318.954 72.4613 322.27 73.1994 325.182C73.7476 327.347 73.2761 330.674 72.7764 334.197C72.0325 339.444 71.1896 345.39 72.7367 351.912C74.4479 359.124 78.6083 364.635 81.9515 369.062C83.3135 370.866 84.5998 372.569 85.5712 374.165C85.7497 374.458 85.9194 374.757 86.0848 375.059H111.212C110.055 370.437 108.219 365.982 105.731 361.894C104.145 359.289 102.36 356.926 100.786 354.84C98.462 351.763 96.2674 348.857 95.6996 346.465C95.183 344.285 95.6498 340.994 96.1435 337.51C96.8672 332.407 97.7673 326.056 96.0769 319.385C93.7944 310.378 87.7082 304.087 82.8175 299.033C79.3963 295.498 76.165 292.158 75.4827 289.251C75.1152 287.685 75.2604 285.27 75.4138 282.713C75.5106 281.101 75.6108 279.435 75.6187 277.638C75.6797 263.761 69.8051 250.111 59.7823 240.557L55.1698 242.592L57.4468 238.468C56.8701 237.984 56.3173 237.539 55.7827 237.11C54.834 236.349 46.556 228.583 42.0631 228.805C33.6175 229.225 28.3399 238.264 32.2771 245.747C32.7297 246.608 33.2429 247.46 33.8246 248.298C36.098 251.572 38.8213 253.758 41.0092 255.514C41.5037 255.912 41.9709 256.287 42.3804 256.633C48.3601 261.693 52.053 269.702 52.0188 277.534C52.0139 278.674 51.9372 279.949 51.856 281.298Z" fill="#336CBC"/>
<path opacity="0.2" d="M62.1205 265.134C71.5671 295.144 62.8068 293.458 73.9344 309.651C85.062 325.845 88.5817 324.496 85.4723 342.714C84.0197 351.225 90.412 363.934 97.6357 375.061H86.0843C85.9191 374.759 85.7492 374.46 85.5706 374.167C84.599 372.571 83.3129 370.867 81.951 369.063C78.6078 364.636 74.4474 359.126 72.7362 351.913C71.1893 345.392 72.0322 339.445 72.7761 334.199C73.2758 330.676 73.7475 327.348 73.1991 325.184C72.461 322.272 69.2527 318.956 65.856 315.445C61.4612 310.903 56.1198 305.379 53.4328 297.792C57.944 298.809 65.6457 300.595 66.7616 301.189C67.9526 301.823 57.5071 295.938 52.1585 292.926C51.4166 288.638 51.6565 284.611 51.8557 281.299C51.9366 279.95 52.0133 278.675 52.0185 277.535C52.0526 269.702 48.3597 261.694 42.38 256.634C41.9706 256.287 41.5034 255.912 41.0089 255.515C38.8209 253.759 36.0977 251.573 33.8243 248.299C33.2423 247.461 32.7296 246.609 32.2767 245.748C30.0888 241.59 30.7475 236.951 33.2131 233.578C43.4812 238.477 56.6955 247.898 62.1205 265.134Z" fill="#336CBC"/>
<path d="M55.7655 364.41C56.8199 365.433 57.7045 367.46 58.6411 369.606C59.4011 371.347 60.2183 373.215 61.3074 375.06H88.9742C88.2236 374.591 87.4557 374.148 86.6654 373.745C84.8783 372.833 83.0622 372.125 81.4599 371.5C79.0956 370.579 76.8626 369.708 75.7187 368.564C74.6768 367.522 73.8019 365.516 72.8756 363.394C71.5192 360.286 69.8309 356.417 66.5807 353.263C62.192 349.005 56.6104 347.583 52.1255 346.439C48.988 345.64 46.0248 344.884 44.6388 343.491C43.8921 342.741 43.1396 341.338 42.3429 339.852C41.8406 338.916 41.3212 337.948 40.7053 336.938C35.6165 328.599 26.8116 322.749 17.1525 321.29C16.6047 321.207 16.0937 321.143 15.5996 321.082C14.8054 320.983 7.48612 319.49 5.04644 321.166C0.45965 324.317 0.623772 331.203 5.41335 334.036C5.96393 334.362 6.54565 334.663 7.16089 334.931C9.56491 335.98 11.8454 336.265 13.6776 336.493C14.0918 336.545 14.483 336.594 14.832 336.646C19.929 337.417 24.7631 340.628 27.4483 345.028C27.8392 345.669 28.2364 346.409 28.6568 347.193C28.7892 347.44 28.926 347.695 29.0667 347.954L35.9031 348.183L30.9674 351.156C31.713 352.27 32.5816 353.392 33.6286 354.445C38.0362 358.876 43.7214 360.325 48.2897 361.489C51.4043 362.283 54.3465 363.033 55.7655 364.41Z" fill="#99B5DD"/>
<path opacity="0.2" d="M29.6492 336.469C45.8432 350.639 47.8346 353.149 56.7235 357.31C63.0134 360.255 68.636 369.754 71.3868 375.058H61.3069C60.2178 373.213 59.4004 371.346 58.6406 369.604C57.704 367.458 56.8196 365.431 55.765 364.408C54.3459 363.031 51.4038 362.281 48.2889 361.487C43.7206 360.323 38.0355 358.874 33.6278 354.443C32.5806 353.39 31.7121 352.268 30.9667 351.154L35.9023 348.182L29.066 347.952C28.9255 347.693 28.7886 347.438 28.6563 347.192C28.2359 346.408 27.8387 345.667 27.4477 345.026C24.7625 340.627 19.9285 337.415 14.8315 336.645C14.4824 336.592 14.0912 336.543 13.6771 336.491C11.8449 336.263 9.56439 335.978 7.16036 334.929C6.54534 334.661 5.96361 334.36 5.41282 334.035C2.79827 332.488 1.56565 329.734 1.72805 327.039C10.7581 327.384 21.6754 329.492 29.6492 336.469Z" fill="#336CBC"/>
<path d="M179.426 135.154L197.308 133.905L179.426 132.656V135.154Z" fill="#EAF5F9"/>
<path d="M193.909 133.905C193.909 134.89 194.708 135.689 195.693 135.689C196.679 135.689 197.477 134.89 197.477 133.905C197.477 132.92 196.679 132.121 195.693 132.121C194.708 132.121 193.909 132.92 193.909 133.905Z" fill="#0047AB"/>
<path d="M181.438 138.827H181.957C184.467 138.827 186.502 136.791 186.502 134.281V133.245C186.502 130.734 184.467 128.699 181.957 128.699H181.438V138.827Z" fill="#294A5C"/>
<path d="M126.099 135.154L108.217 133.905L126.099 132.656V135.154Z" fill="#294A5C"/>
<path d="M111.614 133.905C111.614 134.89 110.815 135.689 109.83 135.689C108.845 135.689 108.046 134.89 108.046 133.905C108.046 132.92 108.845 132.121 109.83 132.121C110.815 132.121 111.614 132.92 111.614 133.905Z" fill="#0047AB"/>
<path d="M124.085 138.827H123.567C121.057 138.827 119.021 136.791 119.021 134.281V133.245C119.021 130.734 121.057 128.699 123.567 128.699H124.085V138.827Z" fill="#294A5C"/>
<path d="M179.426 135.154L197.308 133.905L179.426 132.656V135.154Z" fill="#294A5C"/>
<path d="M193.909 133.905C193.909 134.89 194.708 135.689 195.693 135.689C196.679 135.689 197.477 134.89 197.477 133.905C197.477 132.92 196.679 132.121 195.693 132.121C194.708 132.121 193.909 132.92 193.909 133.905Z" fill="#0047AB"/>
<path d="M181.438 138.827H181.957C184.467 138.827 186.502 136.791 186.502 134.281V133.245C186.502 130.734 184.467 128.699 181.957 128.699H181.438V138.827Z" fill="#294A5C"/>
<path d="M178.541 182.56L177.554 176.646C193.7 173.951 205.986 160.681 207.432 144.376L207.969 138.336L213.94 138.866L213.404 144.906C211.716 163.931 197.38 179.415 178.541 182.56Z" fill="#002B67"/>
<path d="M218.007 134.289C218.007 132.734 217.32 131.313 216.186 130.223V124.744C216.186 124.057 215.63 123.5 214.943 123.5C214.256 123.5 213.7 124.057 213.7 124.744V128.656C212.742 128.284 211.674 128.074 210.547 128.074C209.408 128.074 208.329 128.287 207.364 128.667V124.744C207.364 124.057 206.807 123.5 206.121 123.5C205.434 123.5 204.877 124.057 204.877 124.744V130.252C203.761 131.338 203.086 132.747 203.086 134.289C203.086 136.084 204.002 137.701 205.463 138.835C205.103 139.175 204.877 139.655 204.877 140.188C204.877 141.215 205.71 142.048 206.737 142.048H214.326C215.353 142.048 216.186 141.215 216.186 140.188C216.186 139.661 215.966 139.186 215.614 138.848C217.086 137.713 218.007 136.091 218.007 134.289Z" fill="#0047AB"/>
<path d="M128.709 182.56L129.696 176.646C113.55 173.951 101.264 160.681 99.8173 144.376L99.2815 138.336L93.3096 138.866L93.8455 144.906C95.5331 163.931 109.869 179.415 128.709 182.56Z" fill="#002B67"/>
<path d="M89.2432 134.289C89.2432 132.734 89.9306 131.313 91.0642 130.223V124.744C91.0642 124.057 91.6208 123.5 92.3075 123.5C92.9943 123.5 93.5509 124.057 93.5509 124.744V128.656C94.509 128.284 95.5771 128.074 96.7042 128.074C97.8427 128.074 98.9213 128.287 99.8867 128.667V124.744C99.8867 124.057 100.444 123.5 101.13 123.5C101.817 123.5 102.374 124.057 102.374 124.744V130.252C103.489 131.338 104.165 132.747 104.165 134.289C104.165 136.084 103.249 137.701 101.788 138.835C102.148 139.175 102.373 139.655 102.373 140.188C102.373 141.215 101.541 142.048 100.513 142.048H92.9243C91.8968 142.048 91.0642 141.215 91.0642 140.188C91.0642 139.661 91.2841 139.186 91.6362 138.848C90.1649 137.713 89.2432 136.091 89.2432 134.289Z" fill="#0047AB"/>
<path d="M167.643 229.535H160.944V267.016H167.643V229.535Z" fill="#002B67"/>
<path d="M164.006 258.359C159.706 258.359 156.017 260.978 154.448 264.708C153.644 266.617 155.075 268.726 157.147 268.726H170.866C172.938 268.726 174.368 266.617 173.565 264.708C171.995 260.978 168.306 258.359 164.006 258.359Z" fill="#0047AB"/>
<path d="M169.622 244.13C169.622 247.073 167.237 249.459 164.293 249.459C161.35 249.459 158.964 247.073 158.964 244.13C158.964 241.187 161.35 238.801 164.293 238.801C167.237 238.801 169.622 241.187 169.622 244.13Z" fill="#0047AB"/>
<path d="M142.902 229.535H136.203V267.016H142.902V229.535Z" fill="#002B67"/>
<path d="M165.455 157.768C165.455 157.065 164.885 156.495 164.182 156.495C164.885 156.495 165.455 155.925 165.455 155.222C165.455 154.519 164.885 153.949 164.182 153.949H141.149C140.446 153.949 139.876 154.519 139.876 155.222C139.876 155.925 140.446 156.495 141.149 156.495C140.446 156.495 139.876 157.065 139.876 157.768C139.876 158.471 140.446 159.041 141.149 159.041C140.446 159.041 139.876 159.611 139.876 160.314C139.876 161.017 140.446 161.587 141.149 161.587H164.182C164.885 161.587 165.455 161.017 165.455 160.314C165.455 159.611 164.886 159.041 164.182 159.041C164.885 159.041 165.455 158.471 165.455 157.768Z" fill="#002B67"/>
<path d="M135.75 119.326L138.079 85.9805L140.408 119.326H135.75Z" fill="#003278"/>
<path d="M165.119 119.326L167.448 85.9805L169.777 119.326H165.119Z" fill="#003278"/>
<path d="M173.836 122.479H131.496V118.139C131.496 113.767 135.04 110.223 139.412 110.223H165.92C170.292 110.223 173.836 113.767 173.836 118.139L173.836 122.479Z" fill="#003278"/>
<path d="M124.064 185.832H123.098C118.419 185.832 114.626 182.039 114.626 177.36V175.429C114.626 170.75 118.419 166.957 123.098 166.957H124.064V185.832Z" fill="#002B67"/>
<path d="M181.439 185.832H182.405C187.084 185.832 190.877 182.039 190.877 177.36V175.429C190.877 170.75 187.084 166.957 182.405 166.957H181.439V185.832Z" fill="#002B67"/>
<path d="M173.496 154.751H132.005C127.618 154.751 124.062 151.195 124.062 146.808V122.192C124.062 117.806 127.618 114.25 132.005 114.25H173.497C177.883 114.25 181.439 117.806 181.439 122.192V146.808C181.439 151.195 177.883 154.751 173.496 154.751Z" fill="#6691CD"/>
<path d="M139.397 130.064C139.397 133.025 136.997 135.425 134.036 135.425C131.075 135.425 128.675 133.025 128.675 130.064C128.675 127.103 131.075 124.703 134.036 124.703C136.997 124.703 139.397 127.103 139.397 130.064Z" fill="#F0F8FF"/>
<path d="M176.825 130.064C176.825 133.025 174.425 135.425 171.464 135.425C168.503 135.425 166.104 133.025 166.104 130.064C166.104 127.103 168.503 124.703 171.464 124.703C174.425 124.703 176.825 127.103 176.825 130.064Z" fill="#F0F8FF"/>
<path d="M152.751 143.575C146.972 143.575 144.061 140.733 142.635 138.349C142.098 137.451 141.736 136.56 141.491 135.776C141.081 134.462 142.026 133.116 143.401 133.053H143.403C144.362 133.009 145.222 133.624 145.509 134.541C145.678 135.08 145.932 135.702 146.314 136.312C147.585 138.343 149.751 139.373 152.751 139.373C155.751 139.373 157.917 138.343 159.188 136.312C159.569 135.702 159.824 135.08 159.993 134.541C160.28 133.624 161.14 133.009 162.099 133.053H162.101C163.476 133.116 164.421 134.462 164.011 135.776C163.766 136.56 163.404 137.451 162.867 138.349C161.441 140.733 158.529 143.575 152.751 143.575Z" fill="#F0F8FF"/>
<path d="M152.751 141.968C150.052 141.968 147.811 141.277 146.091 139.912C144.944 139.002 144.051 137.817 143.43 136.384C143.317 136.125 143.444 135.823 143.709 135.723C143.955 135.631 144.231 135.746 144.335 135.987C145.364 138.361 147.655 140.98 152.751 140.98C157.848 140.98 160.139 138.361 161.168 135.987C161.273 135.746 161.549 135.631 161.795 135.723C162.059 135.823 162.186 136.125 162.074 136.384C161.453 137.817 160.559 139.002 159.413 139.912C157.693 141.277 155.452 141.968 152.751 141.968Z" fill="#294A5C"/>
<path d="M137.88 130.066C137.88 132.188 136.159 133.909 134.037 133.909C131.914 133.909 130.193 132.188 130.193 130.066C130.193 127.943 131.914 126.223 134.037 126.223C136.159 126.223 137.88 127.943 137.88 130.066Z" fill="#80A3D5"/>
<path d="M175.308 130.066C175.308 132.188 173.588 133.909 171.465 133.909C169.343 133.909 167.622 132.188 167.622 130.066C167.622 127.943 169.343 126.223 171.465 126.223C173.588 126.223 175.308 127.943 175.308 130.066Z" fill="#80A3D5"/>
<path d="M173.573 127.487C174.399 128.194 174.602 129.31 174.028 129.981C173.454 130.652 172.319 130.623 171.494 129.916C170.669 129.209 170.465 128.093 171.039 127.422C171.613 126.751 172.748 126.781 173.573 127.487Z" fill="#002456"/>
<path d="M136.299 127.487C137.124 128.194 137.328 129.31 136.754 129.981C136.18 130.652 135.045 130.623 134.219 129.916C133.394 129.209 133.191 128.093 133.765 127.422C134.339 126.751 135.474 126.781 136.299 127.487Z" fill="#002456"/>
<path d="M174.689 150.313H130.813C127.085 150.313 124.062 147.29 124.062 143.562V147.998C124.062 151.726 127.085 154.748 130.813 154.748H174.689C178.417 154.748 181.439 151.726 181.439 147.998V143.562C181.439 147.29 178.417 150.313 174.689 150.313Z" fill="#0047AB"/>
<path d="M174.541 230.79H130.96C127.151 230.79 124.062 227.702 124.062 223.893V167.331C124.062 163.522 127.151 160.434 130.96 160.434H174.541C178.351 160.434 181.439 163.522 181.439 167.331V223.892C181.439 227.702 178.351 230.79 174.541 230.79Z" fill="#6691CD"/>
<path d="M174.689 226.356H130.813C127.085 226.356 124.062 223.333 124.062 219.605V224.041C124.062 227.769 127.085 230.791 130.813 230.791H174.689C178.417 230.791 181.439 227.769 181.439 224.041V219.605C181.439 223.333 178.417 226.356 174.689 226.356Z" fill="#0047AB"/>
<path opacity="0.3" d="M147.849 209.32H134.641C131.346 209.32 128.675 206.649 128.675 203.354V176.56C128.675 173.265 131.346 170.594 134.641 170.594H147.849C151.145 170.594 153.816 173.265 153.816 176.56V203.354C153.816 206.649 151.145 209.32 147.849 209.32Z" fill="#F0F8FF"/>
<path opacity="0.3" d="M172.276 209.32H162.621C159.326 209.32 156.654 206.649 156.654 203.354V176.56C156.654 173.265 159.326 170.594 162.621 170.594H172.276C175.571 170.594 178.242 173.265 178.242 176.56V203.354C178.242 206.649 175.571 209.32 172.276 209.32Z" fill="#F0F8FF"/>
<path d="M150.106 204.364H149.888C149.36 204.364 148.932 203.936 148.932 203.408V176.507C148.932 175.979 149.36 175.551 149.888 175.551H150.106C150.635 175.551 151.063 175.979 151.063 176.507V203.408C151.063 203.936 150.635 204.364 150.106 204.364Z" fill="#0047AB"/>
<path d="M167.448 174.051C162.468 174.051 158.432 178.203 158.432 183.326H176.464C176.465 178.203 172.428 174.051 167.448 174.051Z" fill="#1A59B3"/>
<path d="M167.449 175.355C163.642 175.355 160.556 178.325 160.556 181.987H174.341C174.341 178.325 171.255 175.355 167.449 175.355Z" fill="#EAF5F9"/>
<path d="M162.034 191.743C162.034 192.552 161.377 193.208 160.568 193.208C159.759 193.208 159.103 192.552 159.103 191.743C159.103 190.934 159.759 190.277 160.568 190.277C161.377 190.277 162.034 190.934 162.034 191.743Z" fill="#0047AB"/>
<path d="M176.362 191.743C176.362 192.552 175.705 193.208 174.896 193.208C174.087 193.208 173.431 192.552 173.431 191.743C173.431 190.934 174.087 190.277 174.896 190.277C175.705 190.277 176.362 190.934 176.362 191.743Z" fill="#0047AB"/>
<path d="M162.034 205.567C162.034 206.377 161.377 207.033 160.568 207.033C159.759 207.033 159.103 206.376 159.103 205.567C159.103 204.758 159.759 204.102 160.568 204.102C161.377 204.102 162.034 204.758 162.034 205.567Z" fill="#0047AB"/>
<path d="M176.362 205.567C176.362 206.377 175.705 207.033 174.896 207.033C174.087 207.033 173.431 206.376 173.431 205.567C173.431 204.758 174.087 204.102 174.896 204.102C175.705 204.102 176.362 204.758 176.362 205.567Z" fill="#0047AB"/>
<path d="M177.083 217.112H130.196C129.556 217.112 129.036 216.592 129.036 215.952V215.687C129.036 215.047 129.556 214.527 130.196 214.527H177.082C177.723 214.527 178.242 215.047 178.242 215.687V215.952C178.243 216.592 177.723 217.112 177.083 217.112Z" fill="#0047AB"/>
<path d="M177.083 222.19H130.196C129.556 222.19 129.036 221.671 129.036 221.03V220.765C129.036 220.125 129.556 219.605 130.196 219.605H177.082C177.723 219.605 178.242 220.125 178.242 220.765V221.03C178.243 221.671 177.723 222.19 177.083 222.19Z" fill="#0047AB"/>
<path opacity="0.3" d="M167.039 181.148L169.693 176.285L168.231 181.277L167.039 181.148Z" fill="#294A5C"/>
<path d="M168.776 181.988C168.777 181.961 168.78 181.934 168.78 181.907C168.78 181.171 168.183 180.574 167.448 180.574C166.712 180.574 166.115 181.171 166.115 181.907C166.115 181.934 166.118 181.961 166.12 181.988H168.776Z" fill="#0047AB"/>
<path d="M139.264 258.359C134.964 258.359 131.275 260.978 129.706 264.708C128.902 266.617 130.333 268.726 132.405 268.726H146.124C148.195 268.726 149.626 266.617 148.822 264.708C147.253 260.978 143.564 258.359 139.264 258.359Z" fill="#0047AB"/>
<path d="M139.553 249.459C142.496 249.459 144.882 247.073 144.882 244.13C144.882 241.187 142.496 238.801 139.553 238.801C136.61 238.801 134.224 241.187 134.224 244.13C134.224 247.073 136.61 249.459 139.553 249.459Z" fill="#0047AB"/>
<path d="M140.892 88.292C140.892 89.8449 139.633 91.1038 138.08 91.1038C136.527 91.1038 135.269 89.8449 135.269 88.292C135.269 86.7391 136.527 85.4805 138.08 85.4805C139.633 85.4805 140.892 86.7391 140.892 88.292Z" fill="#0047AB"/>
<path d="M170.261 88.292C170.261 89.8449 169.002 91.1038 167.449 91.1038C165.897 91.1038 164.638 89.8449 164.638 88.292C164.638 86.7391 165.896 85.4805 167.449 85.4805C169.002 85.4805 170.261 86.7391 170.261 88.292Z" fill="#0047AB"/>
<path d="M234.833 77.498C234.286 76.8342 233.479 76.4394 232.619 76.4149L225.826 76.2209C225.848 73.8148 225.685 72.2305 225.685 72.2305L210.113 72.2906L194.541 72.3508C194.541 72.3508 194.39 73.9363 194.43 76.3425L187.648 76.5887C186.788 76.6198 185.985 77.0209 185.443 77.689C184.902 78.3569 184.675 79.2262 184.822 80.0737C185.225 82.3954 186.329 86.8606 189.191 90.681C190.792 92.8188 192.743 94.492 194.988 95.654C197.416 96.9102 200.202 97.574 203.282 97.6327C205.171 98.7602 207.455 99.4814 210.218 99.6122C212.98 99.4599 215.259 98.7212 217.139 97.5792C220.222 97.4978 223.007 96.8125 225.427 95.5363C227.663 94.3569 229.6 92.6687 231.185 90.5185C234.018 86.6763 235.087 82.2025 235.472 79.8778C235.612 79.0292 235.38 78.1618 234.833 77.498ZM187.613 79.5893C187.61 79.5731 187.601 79.5242 187.643 79.4731C187.684 79.4217 187.734 79.42 187.751 79.4193L194.56 79.1723C194.913 83.8631 196.087 90.0017 199.539 94.3277C190.815 92.2128 188.31 83.6051 187.613 79.5893ZM232.678 79.415C232.011 83.4379 229.571 92.0704 220.855 94.2482C224.274 89.8956 225.401 83.7462 225.719 79.0518L232.538 79.2464C232.555 79.2469 232.604 79.2484 232.646 79.2993C232.689 79.3497 232.68 79.3989 232.678 79.415Z" fill="#FFD103"/>
<path d="M214.205 123.995L211.32 96.991L210.219 99.6719L210.218 99.6098L209.096 96.9375L206.42 123.963L214.205 123.995Z" fill="#FFD103"/>
<path d="M212.895 99.5999C212.901 101.078 211.707 102.281 210.229 102.287C208.751 102.293 207.548 101.099 207.542 99.6208C207.536 98.1424 208.73 96.9394 210.208 96.9336C211.687 96.9278 212.89 98.1218 212.895 99.5999Z" fill="#FFD103"/>
<path d="M213.178 111.254L207.347 111.276C206.807 111.278 206.368 110.843 206.366 110.303L206.365 110.081C206.363 109.542 206.799 109.103 207.338 109.101L213.17 109.078C213.709 109.076 214.148 109.512 214.15 110.051L214.151 110.273C214.153 110.813 213.717 111.252 213.178 111.254Z" fill="#FFD103"/>
<path d="M214.863 125.857L205.777 125.893C205.149 125.895 204.638 125.388 204.636 124.76L204.635 124.501C204.632 123.873 205.14 123.362 205.768 123.359L214.853 123.324C215.481 123.322 215.992 123.829 215.994 124.457L215.995 124.716C215.998 125.344 215.491 125.855 214.863 125.857Z" fill="#FFD103"/>
<path opacity="0.5" d="M212.844 111.254L207.676 111.274L207.533 112.72L213.001 112.721L212.844 111.254Z" fill="#FEB546"/>
<path opacity="0.5" d="M204.685 124.032C204.652 124.13 204.634 124.234 204.635 124.343L204.637 124.918C204.639 125.458 205.079 125.895 205.62 125.893L215.021 125.857C215.562 125.855 215.999 125.415 215.996 124.874L215.994 124.299C215.994 124.19 215.975 124.086 215.942 123.988L204.685 124.032Z" fill="#FEB546"/>
<path d="M216.744 128.118L203.912 128.168C203.057 128.171 202.361 127.481 202.358 126.625L202.356 126.272C202.353 125.417 203.044 124.721 203.899 124.718L216.731 124.668C217.586 124.665 218.282 125.355 218.285 126.211L218.286 126.564C218.29 127.419 217.599 128.115 216.744 128.118Z" fill="#FFD103"/>
<path opacity="0.3" d="M225.685 72.2305L220.022 72.2524C220.016 72.3899 220.009 72.5295 220.002 72.6704C211.306 72.8607 194.612 73.0966 194.612 73.0966L219.672 76.2265C218.649 83.8605 215.2 93.3075 204.461 93.8998C201.985 93.7825 199.894 93.1913 198.127 92.2586C200.454 96.2501 204.205 99.3274 210.218 99.6124C228.398 98.6094 225.685 72.2305 225.685 72.2305Z" fill="#FEB546"/>
<path d="M225.977 74.7682L194.268 74.8909C193.141 74.8954 192.224 73.9854 192.22 72.8585L192.218 72.3936C192.213 71.2667 193.123 70.3496 194.25 70.3453L225.96 70.2227C227.087 70.2184 228.004 71.1283 228.008 72.2553L228.01 72.7201C228.014 73.8469 227.104 74.7639 225.977 74.7682Z" fill="#FFE55A"/>
<path opacity="0.3" d="M197.488 77.25C197.488 77.25 195.794 96.8317 211.32 96.9928C211.32 96.9928 200.159 92.8434 197.488 77.25Z" fill="#F4C676"/>
<path opacity="0.3" d="M210.382 78.4336L212.727 83.1409L217.935 83.8771L214.183 87.5629L215.092 92.7432L210.427 90.3137L205.782 92.7791L206.651 87.5919L202.87 83.9353L208.072 83.1589L210.382 78.4336Z" fill="#FEB546"/>
<path d="M209.898 77.6875L212.244 82.395L217.451 83.1312L213.699 86.8168L214.609 91.9971L209.944 89.5678L205.298 92.0332L206.167 86.846L202.387 83.1894L207.588 82.4128L209.898 77.6875Z" fill="#FFE55A"/>
<path d="M207.829 268.727H153.816H153.733H99.7205L84.6074 364.104H153.733H153.816H222.942L207.829 268.727Z" fill="#66CDC7"/>
<path opacity="0.5" d="M87.765 344.176L84.6074 364.104H153.733H153.816H222.942L219.784 344.176H87.765Z" fill="#4DC4BE"/>
<path d="M228.935 364.106H75.5557V362.716C75.5557 355.98 81.0163 350.52 87.7524 350.52H216.738C223.474 350.52 228.935 355.98 228.935 362.716L228.935 364.106Z" fill="#006761"/>
<path d="M209.656 277.261H97.5938C95.4778 277.261 93.7627 275.546 93.7627 273.43V272.557C93.7627 270.441 95.4778 268.727 97.5938 268.727H209.656C211.772 268.727 213.487 270.441 213.487 272.557V273.43C213.487 275.546 211.772 277.261 209.656 277.261Z" fill="#008982"/>
<path d="M196.956 297.164H106.877V303.237H196.956V297.164Z" fill="#008982"/>
<path d="M196.956 309.648H106.877V315.721H196.956V309.648Z" fill="#008982"/>
<path d="M184.974 322.133H118.859V328.206H184.974V322.133Z" fill="#008982"/>
<path opacity="0.5" d="M76.7146 357.312C75.9722 358.867 75.5557 360.607 75.5557 362.445V364.106H228.935V362.445C228.935 360.607 228.519 358.867 227.777 357.312H76.7146Z" fill="#4DC4BE"/>
<path d="M244.694 375.059H59.7969V373.669C59.7969 366.933 65.2575 361.473 71.9936 361.473H232.497C239.233 361.473 244.694 366.933 244.694 373.669L244.694 375.059Z" fill="#006761"/>
</svg>
