<svg width="32" height="27" viewBox="0 0 32 27" fill="none" xmlns="http://www.w3.org/2000/svg">
<path d="M31.7245 3.89817C30.5614 4.41348 29.3278 4.75169 28.0646 4.90154C29.3803 4.11292 30.3906 2.86411 30.8663 1.37617C29.6155 2.11839 28.247 2.64135 26.82 2.92247C25.6576 1.68409 24.0016 0.910156 22.1687 0.910156C18.6495 0.910156 15.7963 3.76326 15.7963 7.28219C15.7963 7.78169 15.8527 8.26797 15.9613 8.73446C10.6654 8.46864 5.97014 5.93184 2.82719 2.07658C2.27879 3.01771 1.96456 4.11243 1.96456 5.28007C1.96456 7.49087 3.08962 9.44119 4.79934 10.584C3.78741 10.5523 2.79774 10.279 1.913 9.78685C1.91267 9.81354 1.91255 9.84027 1.91263 9.86704C1.91263 12.9544 4.10912 15.5299 7.02409 16.1153C6.08574 16.3705 5.10148 16.4078 4.14649 16.2245C4.95731 18.7561 7.31067 20.5983 10.099 20.6499C7.91815 22.3589 5.17048 23.3777 2.18513 23.3777C1.67071 23.3777 1.16357 23.3474 0.665039 23.2886C3.48502 25.0966 6.83446 26.1515 10.433 26.1515C22.1539 26.1515 28.5632 16.4417 28.5632 8.02119C28.5632 7.74481 28.5571 7.47001 28.5448 7.19678C29.7922 6.29484 30.8689 5.17785 31.7245 3.89817Z" fill="#55ACEE"/>
</svg>
